<?xml version="1.0" encoding="utf-8"?>
<!-- Generator: Adobe Illustrator 24.1.2, SVG Export Plug-In . SVG Version: 6.00 Build 0)  -->
<svg version="1.1" id="Layer_1" xmlns="http://www.w3.org/2000/svg" xmlns:xlink="http://www.w3.org/1999/xlink" x="0px" y="0px"
	 viewBox="0 0 1920 1080" style="enable-background:new 0 0 1920 1080;" xml:space="preserve">
<style type="text/css">
	.st0{fill:#070000;}
	.st1{opacity:0.13;fill:#FFFFFF;enable-background:new    ;}
	.st2{fill:#FFFFFF;}
</style>
<rect x="2" class="st0" width="1918" height="1081"/>
<g id="Layer_2_1_">
	<g id="Capa_1">
		<path class="st1" d="M1083.5,492.2c-6.9-5.7-15.7-4.1-17.6-3.8c-12.3,2.1-23,13.8-24,27.4c-0.6,8.6,2.6,20.9,11.3,24.8
			c13.3,6,34.5-9.6,37.1-26.7C1090.6,512.3,1092.4,499.4,1083.5,492.2z M1080.6,512.3c-0.7,10.3-14.5,19.5-22.3,16.1
			c-2.1-1-3.8-2.7-4.7-4.9c-3.8-8.2,3.2-21.2,12.5-23.5c3.5-1,7.2-0.4,10.2,1.6C1081,505.2,1080.6,511.7,1080.6,512.3z"/>
		<path class="st1" d="M702.8,428.3c0,0-7.2,0-6.7,18.5c0.5,17.3,3,23.7,3.3,44.7c0.1,2.3-1.5,4.2-3.7,4.6c-4.1,0.6-9.8,2.5-9.8,8.8
			c0,6.3,5.3,7.5,9.2,7.8c2.4,0.1,4.2,2.1,4.2,4.4l0.1,15.6c0.1,0.8,0.2,1.6,0.4,2.4c0.2,0.6,0.3,1.2,0.6,1.8c0.7,1.8,4,4.8,7.3,3.9
			c2.9-0.7,4-4.1,4.6-5.8c0.5-1.5,0.7-3,0.7-4.5c-0.1-7.1-1.1-17-1.4-19.1c5.6-1.4,11.4-2,17.2-1.9h0.4l28.1-0.5
			c0.7,0,1.5-0.2,2.1-0.6c3-1.8,5.4-4.5,6.7-7.8c1-2.3-0.1-4.9-2.4-5.9c-0.7-0.3-1.4-0.4-2.1-0.4c-13.7,1-46.4,3.2-50,1.6
			c-4.6-2-3.3-49.3-3.3-49.3S709,428.4,702.8,428.3z"/>
		<path class="st1" d="M783,424.8c-0.7-2.4-3.2-3.7-5.6-3c-1.6,0.5-2.7,1.7-3.1,3.3c-0.7,3.6-1.2,7.3-1.3,10.9
			c-0.8,14-0.5,28.1-0.2,42.1c0.3,14.8,0.4,35.5,0.2,41.8c0,2.9,0,5.8,0,8.7c-0.1,1.4-0.1,2.9,0.1,4.3c0.5,2.3,1.5,4.5,3.1,6.2
			c1.5,2,4.3,2.3,6.3,0.8c0.1-0.1,0.2-0.1,0.2-0.2l0,0c2.7-2.5,1.9-9.4,1.8-10.5c0-0.4-0.3-2.1-0.6-4.3c-0.2-1-0.3-1.9-0.4-2.9
			c-0.1-0.8-0.1-1.7,0-2.5c0.2-3.3-0.9-24.8-1.1-28.8c-0.5-12.2-0.4-24.5,0.5-36.7c0.4-5.5,0.5-8,0.7-13c0.3-7.8,0-4.9,0.1-7.3
			c0-2.7-0.1-5.4-0.4-8C783.3,425.4,783.2,425.1,783,424.8z"/>
		<ellipse class="st1" cx="820.9" cy="450.7" rx="6.5" ry="9.4"/>
		<path class="st1" d="M823.2,521.1c-0.4,13.8-0.4,18.4-3.3,19.7c-1.8,0.6-3.8,0.2-5.3-1c-1.8-1.4-2.2-3.6-2.4-14.2
			c-0.1-8.1,0.2-3.4,0.3-15.2c0.1-5.5,0-7.9,1.8-9.5c1.9-1.6,4.5-1.9,6.8-0.9C823.9,501.6,823.6,505.8,823.2,521.1z"/>
		<path class="st1" d="M874,511.5c-0.6-0.3-1.6-0.7-2.7-1.2c-1.2-0.6-2.4-1-3.7-1.3c-1.7-0.1-3.5,0.4-4.9,1.4
			c-2.2,1.5-3.7,3.9-4.1,6.6c-0.3,2,0,4.1,1.1,5.9c1.6,2.1,3.9,3.5,6.5,3.8c8.7,2,19.8-2.8,23.7-5.8c0.9-0.8,2.1-1.2,3.3-1.3
			c1.7,0,3.4,0.7,4.5,2.1c1.5,2.2,1.6,5,0.3,7.3c-0.6,1-1.4,1.8-2.3,2.4c-4.6,2.9-32.5,13-44.3-1c-1.6-1.8-2.7-4-3.4-6.3
			c-2.2-7.8,1.6-16.9,8-22c0.9-0.7,10.4-8,19.3-3.7c2.7,1.4,5,3.6,6.5,6.3c0.8,2.4-0.1,5.1-2.2,6.5
			C877.9,512.1,875.8,512.2,874,511.5z"/>
		<path class="st1" d="M931.1,403.8c-1.6,2.6-2.2,6.8,2.6,13.4c0.7,1,1.1,2.1,1.2,3.4c0.5,29.5-1.1,59-4.9,88.3
			c0,0-3.4,36.6,7.1,36.9c0,0,3.4,3.5,10.9-4c0.1-0.1,0.3-0.3,0.4-0.4c1.4-1.7,12.3-14.4,23.2-16.6c3-0.7,6.1,1.1,7,4.1
			c1.4,4.5,4.7,11.2,11.6,11.2h19.6c1.5,0,2.9-0.5,4-1.5c2.6-2.3,6.2-6.8-0.3-11c-1-0.6-2.1-0.9-3.3-0.9c-5.9,0-26-0.2-23.2-7.9
			c0.7-1.9,1.8-3.5,7.6-7.8c1.6-1.1,2.7-1.9,2.8-2c6-4.1,13.5-13,11.4-17.1c-1-1.9-3.9-2.7-6.1-2.5c-5.6,0.4-7.4,6.8-17.3,14.6
			c-1.7,1.4-3.3,2.4-4.2,3.1l-35.5,17.5c0,0-5.4,4.9-4.8-6c0.6-10.8,8.4-80.1,4.3-101.4c-0.1-0.4-0.1-0.9-0.1-1.4
			c0-2.3-0.1-10.3-5.5-13.9C936.8,400.2,933,400.9,931.1,403.8C931.1,403.7,931.1,403.7,931.1,403.8z"/>
		<path class="st1" d="M1117.2,510.7c-6.7,12.1-3,27.7,1.2,29.8c1.1,0.6,2.3,0.8,3.5,0.6c1.7-0.4,3.1-1.5,4-3c4-5.8-1-15.3,2.6-22.3
			c2.1-4.1,6.4-5.5,11.9-7.4c13.5-4.6,29.9-1.9,33.2-5.5c0.6-0.6,1-1.4,1.3-2.2c0.3-1.6,0-3.3-0.8-4.7c-2-3.6-15.2-5.9-30.2-1.7
			C1134.3,497,1123.1,500.2,1117.2,510.7z"/>
		<path class="st1" d="M1194.9,504.2c1.5,3.4,4,6.3,7.1,8.4c3.2,2.1,6.9,3.2,10.7,3.3c16.4,0.2,26.9-15.7,26.9-15.7
			s8.1-11.1,11.5-1.5c0.3,0.8,0.4,1.7,0.3,2.6c-0.3,2.3-0.8,7.6,0.2,10.9c0,0,30.4,68.5-43.1,165.3c-2,2.5-5.6,3-8.2,1.1
			c-2.5-2-3-5.6-1.1-8.2c18-22.9,59.7-84.4,44.7-145.9c-0.8-3.1-3.9-5.1-7.1-4.3c-0.5,0.1-1.1,0.3-1.5,0.6c-5.5,3.3-13.7,7-21.5,7
			c-13.4,0-24.6-12-24.6-12c-0.4-0.5-5.8-7.4-5.3-12.9c0-1.7,0.7-3.4,1.8-4.8c0.5-0.7,1.2-1.2,2-1.5
			C1189.8,496.3,1192.9,499.3,1194.9,504.2z"/>
		<path class="st2" d="M696.6,427.5c0,0-7.2,0-6.7,18.5c0.5,17.3,3,23.7,3.3,44.7c0,2.3-1.6,4.2-3.8,4.6c-4.1,0.6-9.8,2.5-9.8,8.8
			s5.3,7.5,9.2,7.8c2.4,0.1,4.2,2.1,4.3,4.4v15.6c0.1,0.8,0.2,1.6,0.4,2.4c0.2,0.9,0.5,1.6,0.6,1.8c0.7,1.8,4,4.8,7.3,3.9
			c2.9-0.7,4-4.1,4.6-5.8c0.5-1.5,0.7-3,0.7-4.5c0-7.1-1.1-17-1.4-19.1c5.6-1.4,11.4-2,17.2-1.8h0.4l28.1-0.4c0.7,0,1.5-0.2,2.1-0.6
			c3-1.8,5.4-4.5,6.7-7.8c1-2.3-0.1-5-2.4-5.9c-0.7-0.3-1.4-0.4-2.1-0.4c-13.7,1-46.4,3.2-50,1.6c-4.6-2-3.3-49.3-3.3-49.3
			S702.7,427.6,696.6,427.5z"/>
		<path class="st2" d="M776.7,423.9c-0.7-2.4-3.2-3.7-5.6-3c-1.6,0.5-2.7,1.8-3.1,3.3c-0.7,3.6-1.2,7.2-1.3,10.9
			c-0.8,14-0.5,28.1-0.2,42.1c0.3,14.8,0.4,35.5,0.2,41.8c-0.1,2.9,0,5.8,0,8.7c-0.1,1.4-0.1,2.9,0.1,4.3c0.5,2.3,1.5,4.5,3.1,6.2
			c1.5,2,4.3,2.3,6.3,0.8c0.1-0.1,0.1-0.1,0.2-0.2l0,0c2.7-2.5,1.9-9.4,1.8-10.5c0-0.4-0.3-2.1-0.6-4.3c-0.2-0.9-0.3-1.9-0.4-2.9
			c-0.1-0.8-0.1-1.7,0-2.5c0.2-3.3-0.9-24.8-1.1-28.8c-0.5-12.2-0.4-24.5,0.5-36.7c0.4-5.5,0.5-8,0.7-13c0.3-7.8,0-4.9,0.1-7.3
			c0-2.7-0.1-5.4-0.4-8C777,424.6,776.9,424.3,776.7,423.9z"/>
		<ellipse class="st2" cx="814.6" cy="449.9" rx="6.5" ry="9.4"/>
		<path class="st2" d="M816.9,520.3c-0.4,13.8-0.4,18.4-3.3,19.7c-1.8,0.6-3.8,0.2-5.3-1c-1.8-1.4-2.2-3.6-2.4-14.3
			c-0.1-8.1,0.2-3.3,0.3-15.2c0-5.5,0-7.9,1.8-9.5c1.9-1.6,4.5-1.9,6.8-0.9C817.7,500.8,817.3,504.9,816.9,520.3z"/>
		<path class="st2" d="M867.8,510.7c-0.6-0.3-1.5-0.7-2.7-1.2c-1.2-0.6-2.4-1-3.7-1.3c-1.7-0.1-3.5,0.4-4.9,1.4
			c-2.2,1.6-3.6,3.9-4.1,6.6c-0.3,2,0,4.1,1.1,5.9c1.6,2.1,3.9,3.4,6.5,3.8c8.7,2,19.8-2.8,23.7-5.8c2.2-1.9,5.5-1.7,7.5,0.5
			c0.1,0.1,0.2,0.2,0.2,0.3c1.5,2.2,1.6,5,0.3,7.3c-0.6,1-1.4,1.8-2.4,2.4c-4.5,2.9-32.5,13-44.3-1.1c-1.6-1.8-2.7-4-3.4-6.3
			c-2.2-7.8,1.6-16.9,8-22c0.9-0.7,10.4-8,19.3-3.7c2.8,1.4,5,3.6,6.5,6.3c0.8,2.4-0.1,5.1-2.2,6.6
			C871.6,511.4,869.6,511.5,867.8,510.7z"/>
		<path class="st2" d="M924.8,402.9c-1.6,2.6-2.2,6.8,2.6,13.4c0.7,1,1.1,2.1,1.2,3.4c0.5,29.5-1.1,59-4.9,88.3
			c0,0-3.4,36.6,7.1,36.9c0,0,3.4,3.5,10.9-4c0.1-0.1,0.3-0.3,0.4-0.4c1.4-1.7,12.3-14.4,23.2-16.6c3-0.6,6.1,1.1,7,4.1
			c1.4,4.5,4.7,11.2,11.6,11.2h19.6c1.5,0,2.9-0.5,4-1.5c2.6-2.3,6.2-6.8-0.3-11c-1-0.6-2.1-0.9-3.3-0.9c-5.9,0.1-26-0.2-23.2-7.9
			c0.7-1.9,1.8-3.5,7.6-7.8c1.6-1.1,2.7-1.9,2.8-2c6-4.1,13.5-13,11.4-17.1c-1-1.9-3.9-2.6-6.1-2.5c-5.6,0.4-7.4,6.8-17.3,14.6
			c-1.7,1.4-3.3,2.4-4.2,3.1l-35.5,17.5c0,0-5.4,4.9-4.8-6c0.6-10.8,8.4-80.1,4.3-101.4c-0.1-0.4-0.1-0.9-0.1-1.4
			c0.1-2.3-0.1-10.3-5.5-13.8C930.5,399.4,926.8,400.1,924.8,402.9C924.8,402.9,924.8,402.9,924.8,402.9z"/>
		<path class="st2" d="M1110.9,509.9c-6.7,12.1-3,27.7,1.2,29.8c1.1,0.6,2.3,0.8,3.5,0.6c1.7-0.4,3.1-1.5,4-3c4-5.8-1-15.4,2.6-22.3
			c2.1-4.1,6.4-5.5,11.9-7.4c13.5-4.6,29.9-1.9,33.2-5.5c0.6-0.6,1-1.4,1.3-2.2c0.3-1.6,0-3.3-0.8-4.7c-2-3.6-15.2-5.9-30.2-1.7
			C1128,496.2,1116.8,499.3,1110.9,509.9z"/>
		<path class="st2" d="M1188.6,503.4c3.1,7.1,10.1,11.6,17.8,11.6c16.4,0.1,26.9-15.8,26.9-15.8s8.1-11,11.5-1.4
			c0.3,0.8,0.4,1.7,0.3,2.6c-0.3,2.3-0.8,7.6,0.2,10.9c0,0,30.4,68.5-43.1,165.3c-1.1,1.4-2.8,2.3-4.6,2.3c-3.2,0-5.8-2.6-5.8-5.8
			c0-1.3,0.4-2.6,1.2-3.6c18-22.9,59.7-84.4,44.7-145.9c-0.8-3.1-3.9-5-7.1-4.3c-0.5,0.1-1.1,0.3-1.5,0.6
			c-5.5,3.2-13.7,6.9-21.5,6.9c-13.3,0-24.7-12-24.7-12c-0.4-0.6-5.8-7.4-5.3-12.9c0-1.7,0.7-3.4,1.8-4.8c0.5-0.7,1.3-1.2,2.1-1.4
			C1183.6,495.5,1186.6,498.4,1188.6,503.4z"/>
		<path class="st2" d="M910.2,574.8v28.5h-3.7v-28.5H910.2z"/>
		<path class="st2" d="M919.5,588.4c0-2.1,0-3.8-0.2-5.5h3.3l0.2,3.4h0.1c1.4-2.4,4-3.9,6.8-3.9c2.8,0,7.2,1.6,7.2,8.7v12.2h-3.7
			v-11.8c0-3.3-1.2-6.1-4.7-6.1c-2.3,0-4.4,1.6-5,3.8c-0.2,0.6-0.3,1.1-0.2,1.7v12.3h-3.7L919.5,588.4z"/>
		<path class="st2" d="M963.2,573.3V598c0,1.8,0,3.9,0.2,5.3h-3.3l-0.2-3.5h-0.1c-1.4,2.6-4.1,4.1-7,4c-4.9,0-8.8-4.2-8.8-10.4
			c0-6.8,4.2-11,9.2-11c2.5-0.1,4.8,1,6.2,3.1h0.1v-12.2H963.2z M959.5,591.2c0-0.5,0-1.1-0.2-1.6c-0.5-2.5-2.8-4.3-5.4-4.3
			c-3.9,0-6.1,3.4-6.1,7.9c0,4.1,2,7.6,6.1,7.6c2.6,0,4.9-1.9,5.5-4.4c0.1-0.5,0.2-1.1,0.2-1.6L959.5,591.2z"/>
		<path class="st2" d="M989.1,597.7c0,2.1,0,4,0.2,5.6H986l-0.2-3.3h-0.1c-1.4,2.4-4,3.8-6.8,3.8c-3.3,0-7.1-1.8-7.1-9v-12h3.7v11.4
			c0,3.9,1.2,6.5,4.6,6.5c2.2-0.1,4.1-1.4,4.9-3.4c0.2-0.6,0.3-1.3,0.3-1.9V583h3.7L989.1,597.7z"/>
		<path class="st2" d="M997.3,599.5c1.5,0.9,3.2,1.4,4.9,1.5c2.7,0,4-1.4,4-3c0-1.7-1-2.7-3.8-3.8c-3.7-1.3-5.4-3.3-5.4-5.8
			c0-3.3,2.7-6,7.1-6c1.8,0,3.5,0.4,5,1.3l-0.9,2.7c-1.3-0.8-2.7-1.2-4.2-1.2c-2.2,0-3.4,1.3-3.4,2.8s1.2,2.5,3.9,3.5
			c3.6,1.4,5.4,3.1,5.4,6.2c0,3.6-2.8,6.1-7.7,6.1c-2,0-4-0.4-5.8-1.4L997.3,599.5z"/>
		<path class="st2" d="M1021.5,576.9v5.9h5.3v2.8h-5.3v11c0,2.5,0.7,4,2.8,4c0.7,0,1.5-0.1,2.2-0.3l0.2,2.8c-1,0.4-2.1,0.5-3.3,0.5
			c-1.5,0.1-3-0.5-4-1.6c-1.1-1.5-1.7-3.4-1.4-5.3v-11.2h-3.3v-2.8h3.3v-4.9L1021.5,576.9z"/>
		<path class="st2" d="M1033.6,589.2c0-2.4,0-4.5-0.2-6.4h3.3l0.1,4h0.2c0.7-2.6,3-4.4,5.7-4.5c0.4,0,0.7,0,1.1,0.1v3.5
			c-0.4-0.1-0.8-0.1-1.3-0.1c-2.6,0.1-4.8,2.2-5,4.8c-0.1,0.6-0.2,1.1-0.2,1.7v10.9h-3.7L1033.6,589.2z"/>
		<path class="st2" d="M1054.3,577.1c0.1,1.2-0.9,2.2-2.1,2.3c-0.1,0-0.2,0-0.3,0c-1.2,0-2.2-1-2.2-2.2c0,0,0-0.1,0-0.1
			c0-1.2,0.9-2.3,2.2-2.3c0,0,0.1,0,0.1,0c1.2,0,2.2,0.9,2.3,2.1C1054.3,576.9,1054.3,577,1054.3,577.1z M1050.1,603.3v-20.5h3.7
			v20.5H1050.1z"/>
		<path class="st2" d="M1064.6,593.7c0.1,5,3.3,7.1,7,7.1c1.9,0.1,3.9-0.3,5.7-1.1l0.6,2.7c-2.2,0.9-4.5,1.3-6.8,1.3
			c-6.3,0-10.1-4.1-10.1-10.3c0-6.2,3.6-11,9.6-11c6.7,0,8.5,5.9,8.5,9.6c0,0.6,0,1.2-0.1,1.7H1064.6z M1075.6,591
			c0-2.4-1-6.1-5.2-6.1c-3.8,0-5.4,3.5-5.7,6.1H1075.6z"/>
		<path class="st2" d="M1085.8,599.5c1.5,0.9,3.2,1.4,4.9,1.5c2.7,0,4-1.4,4-3c0-1.7-1.1-2.7-3.8-3.8c-3.7-1.3-5.4-3.3-5.4-5.8
			c0-3.3,2.7-6,7.1-6c1.8,0,3.5,0.4,5,1.3l-0.9,2.7c-1.3-0.8-2.7-1.2-4.2-1.2c-2.2,0-3.4,1.3-3.4,2.8s1.2,2.5,3.9,3.5
			c3.5,1.4,5.4,3.1,5.4,6.2c0,3.6-2.8,6.1-7.6,6.1c-2,0-4-0.4-5.8-1.4L1085.8,599.5z"/>
		<path class="st2" d="M1128.7,574.8h3.6v25.4h12.2v3.1h-15.9L1128.7,574.8z"/>
		<path class="st2" d="M1151.2,574.8h3.7v25.4h12.2v3.1h-15.9V574.8z"/>
		<path class="st2" d="M1192,602.4c-2.4,1-5,1.4-7.5,1.4c-8,0-14.1-5.1-14.1-14.4c0-8.9,6.1-15,14.9-15c2.3-0.1,4.6,0.3,6.8,1.3
			l-0.9,3c-1.8-0.8-3.8-1.2-5.8-1.2c-6.7,0-11.1,4.3-11.1,11.8c0,7,4,11.4,11,11.4c2.1,0,4.1-0.4,6-1.2L1192,602.4z"/>
		<path class="st2" d="M624.9,420v67.7c-24.9,0.7-50.3,1.1-76,1.4c-25.5,0.2-50.6,0.2-75.3,0c-0.2-0.3,100.4,5.5,151.3,7v72.9h11
			V420H624.9z"/>
		<path class="st2" d="M1295.1,412.6v67.7c24.9,0.7,50.3,1.1,76,1.4c25.5,0.2,50.6,0.2,75.3,0c0.2-0.3-100.4,5.5-151.3,7v72.9h-11
			v-149H1295.1z"/>
		<path class="st2" d="M1077.3,491.3c-6.9-5.6-15.7-4.1-17.6-3.8c-12.3,2.1-23,13.8-24,27.4c-0.6,8.6,2.6,20.9,11.2,24.8
			c13.3,6,34.5-9.6,37.1-26.7C1084.3,511.6,1086.1,498.6,1077.3,491.3z M1074.3,511.5c-0.7,10.3-14.5,19.5-22.3,16.1
			c-2.1-1-3.8-2.7-4.7-4.9c-3.8-8.2,3.2-21.2,12.5-23.5c3.5-1,7.2-0.4,10.2,1.6C1074.7,504.4,1074.3,510.9,1074.3,511.5z"/>
	</g>
</g>
</svg>
